# xmcd
# 
# Track frame offsets:
#     150
#     13550
#     25030
#     35910
#     49025
#     65730
#     78753
#     92646
#     103691
#     117298
#     130476
#     141489
#     152384
#     163245
#     174529
#     185889
#     197477
#     206611
#     217211
#     229677
#     242372
#     256082
#     267933
#     280719
#     294254
# 
# Disc length: 4078
# 
# Revision: 0
# Processed by: cddbd v1.5.2PL0 Copyright (c) Steve Scherf et al.
# Submitted via: fre:ac v1.0.31
# 
DISCID=680fec19
DTITLE=Country - The Greatest Country Hits Of 1950 Disc 3
DYEAR=0
DGENRE=Country
TTITLE0=Why Should I Cry
TTITLE1=Little Angel With The Dirty Face
TTITLE2=Sugarfoot Rag
TTITLE3=Love Song In 32 Bars
TTITLE4=Steal Away
TTITLE5=Just A Closer Walk With Thee
TTITLE6=Give Me A Little Old Fashioned Love
TTITLE7=Let's Go To Church (Next Sunday Morning)
TTITLE8=Birmingham Bounce
TTITLE9=Hillbilly Fever
TTITLE10=Cry Of The Dying Duck In A Thunderstorm
TTITLE11=Choclate Ice Cream Cone (Kenny Roberts)
TTITLE12=Why Don't You Love Me
TTITLE13=Slippin' Around With Jole Blon
TTITLE14=Mississippi
TTITLE15=Throw Your Love Away
TTITLE16=Choc'late Ice Cream Cone (Red Foley)
TTITLE17=Cuddle Buggin' Baby
TTITLE18=Lose Your Blues
TTITLE19=I'm Moving On
TTITLE20=Goodnight Irene
TTITLE21=Enclosed, One Broken Heart
TTITLE22=Hillbilly Fever No. 2
TTITLE23=Remember Me Im The One Who Loves You
TTITLE24=Ain't Nobody's Business But My Own
EXTD=
EXTT0=
EXTT1=
EXTT2=
EXTT3=
EXTT4=
EXTT5=
EXTT6=
EXTT7=
EXTT8=
EXTT9=
EXTT10=
EXTT11=
EXTT12=
EXTT13=
EXTT14=
EXTT15=
EXTT16=
EXTT17=
EXTT18=
EXTT19=
EXTT20=
EXTT21=
EXTT22=
EXTT23=
EXTT24=
PLAYORDER=
